<svg width="512" height="512" fill="none" version="1.1" viewBox="0 0 291.31 291.31" xmlns="http://www.w3.org/2000/svg">
    <defs>
        <filter id="filter0_d_301_2" x="1.3902" y="10.443" width="167.16" height="153.9" color-interpolation-filters="sRGB" filterUnits="userSpaceOnUse">
            <feFlood flood-opacity="0" result="BackgroundImageFix"/>
            <feColorMatrix in="SourceAlpha" result="hardAlpha" values="0 0 0 0 0 0 0 0 0 0 0 0 0 0 0 0 0 0 127 0"/>
            <feOffset dx="2" dy="3"/>
            <feGaussianBlur stdDeviation="4"/>
            <feComposite in2="hardAlpha" operator="out"/>
            <feColorMatrix values="0 0 0 0 0.108333 0 0 0 0 0.108333 0 0 0 0 0.108333 0 0 0 0.2 0"/>
            <feBlend in2="BackgroundImageFix" result="effect1_dropShadow_301_2"/>
            <feBlend in="SourceGraphic" in2="effect1_dropShadow_301_2" result="shape"/>
        </filter>
        <filter id="filter2243" x="-.060863" y="-.060863" width="1.1217" height="1.1217" color-interpolation-filters="sRGB">
            <feGaussianBlur stdDeviation="1.7964704"/>
        </filter>
        <filter id="filter6506" x="-.70605" y="-.70605" width="2.4121" height="2.4121" color-interpolation-filters="sRGB">
            <feGaussianBlur stdDeviation="35.329559"/>
        </filter>
    </defs>
    <g transform="translate(63.155 63.155)">
        <circle cx="82.5" cy="82.5" r="60.046" fill="#9fd624" filter="url(#filter6506)" opacity=".20632" stroke-width=".56896"/>
        <path d="m121.52 55.365v0.37357c-0.0554 5.0501-4.6488 8.4814-9.6989 8.4814h-13.545c-3.6665 0-6.6412 2.9747-6.6412 6.6412 0 0.47041 0.05541 0.927 0.13836 1.3697 0.29056 1.4113 0.89933 2.7672 1.4943 4.1369 0.84398 1.9093 1.6741 3.8048 1.6741 5.811 0 4.3998-2.9885 8.3983-7.3883 8.5782-0.48425 0.01383-0.96851 0.02766-1.4666 0.02766-19.55 0-35.406-15.856-35.406-35.42 0-19.564 15.856-35.42 35.42-35.42 19.564 0 35.42 15.856 35.42 35.42zm-53.129 4.4275c0-2.4489-1.9785-4.4275-4.4275-4.4275-2.4489 0-4.4275 1.9785-4.4275 4.4275 0 2.4489 1.9785 4.4275 4.4275 4.4275 2.4489 0 4.4275-1.9785 4.4275-4.4275zm0-13.282c2.4489 0 4.4275-1.9785 4.4275-4.4275 0-2.4489-1.9785-4.4275-4.4275-4.4275-2.4489 0-4.4275 1.9785-4.4275 4.4275 0 2.4489 1.9785 4.4275 4.4275 4.4275zm22.137-13.282c0-2.4489-1.9785-4.4275-4.4275-4.4275-2.4489 0-4.4275 1.9785-4.4275 4.4275 0 2.4489 1.9785 4.4275 4.4275 4.4275 2.4489 0 4.4275-1.9785 4.4275-4.4275zm13.282 13.282c2.449 0 4.4275-1.9785 4.4275-4.4275 0-2.4489-1.9785-4.4275-4.4275-4.4275-2.4489 0-4.4274 1.9785-4.4274 4.4275 0 2.4489 1.9785 4.4275 4.4274 4.4275z" fill="#000" filter="url(#filter2243)" opacity=".16134" stroke-width=".13836" style="mix-blend-mode:normal"/>
        <path d="m82.987 153.34c-0.9612 1e-3 -1.9131-0.187-2.8011-0.555s-1.6946-0.908-2.3733-1.588l-34.146-34.144c-1.366-1.373-2.1317-3.232-2.1292-5.169 0.0026-1.937 0.7732-3.795 2.143-5.164 1.3697-1.37 3.2268-2.141 5.1639-2.144 1.9372-2e-3 3.7964 0.763 5.1699 2.129l28.973 28.97 63.118-63.115c1.376-1.3538 3.231-2.109 5.161-2.1011 1.931 0.0078 3.78 0.7781 5.144 2.143 1.365 1.365 2.136 3.2139 2.144 5.1442 7e-3 1.9303-0.748 3.7855-2.102 5.1614l-68.292 68.29c-0.6786 0.681-1.485 1.22-2.3728 1.588-0.8877 0.368-1.8394 0.556-2.8003 0.555z" fill="#729b1b" filter="url(#filter0_d_301_2)"/>
        <path d="m82.957 153.34c0.9612 1e-3 1.9131-0.187 2.8011-0.555s1.6945-0.908 2.3733-1.588l34.146-34.144c1.366-1.373 2.132-3.232 2.129-5.169-2e-3 -1.937-0.773-3.795-2.143-5.164-1.37-1.37-3.227-2.141-5.164-2.144-1.937-2e-3 -3.796 0.763-5.17 2.129l-28.973 28.97-63.118-63.115c-1.376-1.3538-3.2312-2.109-5.1614-2.1011-1.9303 0.0078-3.7793 0.7781-5.1442 2.143-1.3649 1.365-2.1352 3.2139-2.1431 5.1442s0.74734 3.7855 2.1011 5.1614l68.293 68.29c0.6787 0.681 1.4851 1.22 2.3728 1.588 0.8878 0.368 1.8395 0.556 2.8004 0.555z" fill="#729b1b" fill-opacity=".5" filter="url(#filter0_d_301_2)"/>
        <path d="m121.52 55.365v0.37357c-0.0554 5.0501-4.6488 8.4814-9.6989 8.4814h-13.545c-3.6665 0-6.6412 2.9747-6.6412 6.6412 0 0.47041 0.05541 0.927 0.13836 1.3697 0.29056 1.4113 0.89933 2.7672 1.4943 4.1369 0.84398 1.9093 1.6741 3.8048 1.6741 5.811 0 4.3998-2.9885 8.3983-7.3883 8.5782-0.48425 0.01383-0.96851 0.02766-1.4666 0.02766-19.55 0-35.406-15.856-35.406-35.42 0-19.564 15.856-35.42 35.42-35.42 19.564 0 35.42 15.856 35.42 35.42zm-53.129 4.4275c0-2.4489-1.9785-4.4275-4.4275-4.4275-2.4489 0-4.4275 1.9785-4.4275 4.4275 0 2.4489 1.9785 4.4275 4.4275 4.4275 2.4489 0 4.4275-1.9785 4.4275-4.4275zm0-13.282c2.4489 0 4.4275-1.9785 4.4275-4.4275 0-2.4489-1.9785-4.4275-4.4275-4.4275-2.4489 0-4.4275 1.9785-4.4275 4.4275 0 2.4489 1.9785 4.4275 4.4275 4.4275zm22.137-13.282c0-2.4489-1.9785-4.4275-4.4275-4.4275-2.4489 0-4.4275 1.9785-4.4275 4.4275 0 2.4489 1.9785 4.4275 4.4275 4.4275 2.4489 0 4.4275-1.9785 4.4275-4.4275zm13.282 13.282c2.449 0 4.4275-1.9785 4.4275-4.4275 0-2.4489-1.9785-4.4275-4.4275-4.4275-2.4489 0-4.4274 1.9785-4.4274 4.4275 0 2.4489 1.9785 4.4275 4.4274 4.4275z" fill="#fcc72b" stroke-width=".13836"/>
    </g>
</svg>
